<?xml version="1.0" standalone="no"?>
<!DOCTYPE svg PUBLIC "-//W3C//DTD SVG 20010904//EN"
 "http://www.w3.org/TR/2001/REC-SVG-20010904/DTD/svg10.dtd">
<svg version="1.0" xmlns="http://www.w3.org/2000/svg"
 width="500.000000pt" height="500.000000pt" viewBox="0 0 500.000000 500.000000"
 preserveAspectRatio="xMidYMid meet">

<g transform="translate(0.000000,500.000000) scale(0.100000,-0.100000)"
fill="#000000" stroke="none">
<path d="M2300 4740 c-309 -32 -552 -104 -824 -242 -588 -300 -1015 -847
-1166 -1493 -57 -246 -72 -581 -36 -815 74 -483 273 -896 594 -1231 311 -325
668 -532 1107 -642 196 -49 301 -61 525 -61 224 0 329 12 525 61 179 45 327
99 486 179 124 62 328 192 402 256 l38 33 -125 124 -124 124 -60 -37 c-393
-238 -900 -151 -1189 204 -67 83 -148 242 -174 345 -107 418 90 851 476 1045
150 75 228 93 410 94 127 1 162 -3 229 -22 353 -102 607 -378 672 -732 36
-200 -6 -430 -111 -612 -25 -43 -45 -81 -45 -85 0 -8 245 -243 253 -243 9 0
154 185 204 260 149 224 263 485 323 744 74 320 74 692 0 1011 -210 901 -953
1585 -1870 1720 -129 19 -405 27 -520 15z"/>
<path d="M3074 2401 c-205 -33 -384 -162 -471 -341 -52 -108 -67 -172 -67
-285 0 -112 15 -177 65 -281 225 -463 898 -462 1127 1 64 128 82 299 47 435
-39 150 -142 293 -272 377 -116 75 -296 114 -429 94z"/>
</g>
</svg>
